<mxfile host="app.diagrams.net" agent="Mozilla/5.0 (Windows NT 10.0; Win64; x64) AppleWebKit/537.36 (KHTML, like Gecko) Chrome/135.0.0.0 Safari/537.36 Edg/135.0.0.0" version="26.2.12">
  <diagram name="第 1 页" id="LBwYV1cpOcLLt1L9Yb_N">
    <mxGraphModel dx="2861" dy="820" grid="1" gridSize="10" guides="1" tooltips="1" connect="1" arrows="1" fold="1" page="1" pageScale="1" pageWidth="827" pageHeight="1169" math="0" shadow="0">
      <root>
        <mxCell id="0" />
        <mxCell id="1" parent="0" />
        <mxCell id="teSAWSRqsFNRcY3JA3gG-1" value="" style="rounded=1;arcSize=5;whiteSpace=wrap;html=1;fillColor=light-dark(#deebf7, #1d293b);strokeColor=light-dark(#2a77bc, #5c79a3);" parent="1" vertex="1">
          <mxGeometry x="-840" y="90" width="480" height="290" as="geometry" />
        </mxCell>
        <mxCell id="teSAWSRqsFNRcY3JA3gG-2" value="" style="group" parent="1" vertex="1" connectable="0">
          <mxGeometry x="-1030" y="170" width="180" height="96" as="geometry" />
        </mxCell>
        <mxCell id="teSAWSRqsFNRcY3JA3gG-3" value="" style="group" parent="teSAWSRqsFNRcY3JA3gG-2" vertex="1" connectable="0">
          <mxGeometry x="-47.368421052631575" width="227.36842105263156" height="90.24" as="geometry" />
        </mxCell>
        <mxCell id="teSAWSRqsFNRcY3JA3gG-4" value="" style="shape=actor;whiteSpace=wrap;html=1;" parent="teSAWSRqsFNRcY3JA3gG-3" vertex="1">
          <mxGeometry x="104.21052631578947" y="-5.76" width="37.89473684210526" height="57.599999999999994" as="geometry" />
        </mxCell>
        <mxCell id="teSAWSRqsFNRcY3JA3gG-5" value="&lt;font face=&quot;Times New Roman&quot; style=&quot;font-size: 14px;&quot;&gt;I&#39;m sleepy&lt;/font&gt;" style="whiteSpace=wrap;html=1;shape=mxgraph.basic.roundRectCallout;dx=30;dy=15;size=5;boundedLbl=1;" parent="teSAWSRqsFNRcY3JA3gG-3" vertex="1">
          <mxGeometry x="151.57894736842104" y="-5.76" width="75.78947368421052" height="57.599999999999994" as="geometry" />
        </mxCell>
        <mxCell id="teSAWSRqsFNRcY3JA3gG-6" value="&lt;font face=&quot;Times New Roman&quot;&gt;&lt;span style=&quot;font-size: 14px;&quot;&gt;用户对话&lt;/span&gt;&lt;/font&gt;" style="text;html=1;align=center;verticalAlign=middle;resizable=0;points=[];autosize=1;strokeColor=none;fillColor=none;" parent="teSAWSRqsFNRcY3JA3gG-3" vertex="1">
          <mxGeometry x="123.1578947368421" y="61.44" width="80" height="30" as="geometry" />
        </mxCell>
        <mxCell id="teSAWSRqsFNRcY3JA3gG-7" style="edgeStyle=orthogonalEdgeStyle;rounded=1;orthogonalLoop=1;jettySize=auto;html=1;fillColor=#1ba1e2;strokeColor=light-dark(#164673, #51afe7);curved=0;textShadow=1;" parent="1" edge="1">
          <mxGeometry relative="1" as="geometry">
            <mxPoint x="-701" y="215.76" as="sourcePoint" />
            <mxPoint x="-651" y="215.76" as="targetPoint" />
          </mxGeometry>
        </mxCell>
        <mxCell id="teSAWSRqsFNRcY3JA3gG-8" style="edgeStyle=orthogonalEdgeStyle;rounded=1;orthogonalLoop=1;jettySize=auto;html=1;fillColor=#1ba1e2;strokeColor=light-dark(#164673, #51afe7);curved=0;" parent="1" edge="1">
          <mxGeometry relative="1" as="geometry">
            <mxPoint x="-570" y="220" as="sourcePoint" />
            <mxPoint x="-510" y="138" as="targetPoint" />
            <Array as="points">
              <mxPoint x="-570" y="221" />
              <mxPoint x="-540" y="221" />
              <mxPoint x="-540" y="138" />
            </Array>
          </mxGeometry>
        </mxCell>
        <mxCell id="teSAWSRqsFNRcY3JA3gG-9" value="" style="group;align=left;" parent="1" vertex="1" connectable="0">
          <mxGeometry x="-810" y="143.5" width="130" height="145" as="geometry" />
        </mxCell>
        <mxCell id="teSAWSRqsFNRcY3JA3gG-10" value="&lt;b&gt;&lt;font face=&quot;Times New Roman&quot;&gt;基础信息提示（Prompt）&lt;/font&gt;&lt;/b&gt;" style="text;html=1;align=center;verticalAlign=middle;resizable=0;points=[];autosize=1;strokeColor=none;fillColor=none;" parent="teSAWSRqsFNRcY3JA3gG-9" vertex="1">
          <mxGeometry x="-30" y="110" width="160" height="30" as="geometry" />
        </mxCell>
        <mxCell id="teSAWSRqsFNRcY3JA3gG-11" value="&lt;div style=&quot;color: rgb(51, 51, 51);&quot;&gt;&lt;span style=&quot;background-color: transparent; color: light-dark(rgb(51, 51, 51), rgb(193, 193, 193));&quot;&gt;&lt;font face=&quot;Times New Roman&quot;&gt;&amp;nbsp; User states:&lt;/font&gt;&lt;/span&gt;&lt;/div&gt;&lt;div style=&quot;color: rgb(51, 51, 51);&quot;&gt;&lt;span style=&quot;background-color: transparent; color: light-dark(rgb(51, 51, 51), rgb(193, 193, 193));&quot;&gt;&lt;font face=&quot;Times New Roman&quot;&gt;&amp;nbsp; Env.info.:&lt;/font&gt;&lt;/span&gt;&lt;/div&gt;&lt;div style=&quot;color: rgb(51, 51, 51);&quot;&gt;&lt;font face=&quot;Times New Roman&quot;&gt;&amp;nbsp; Intention history:&lt;/font&gt;&lt;/div&gt;&lt;div style=&quot;color: rgb(51, 51, 51);&quot;&gt;&lt;font face=&quot;Times New Roman&quot;&gt;&amp;nbsp; ...&lt;/font&gt;&lt;/div&gt;" style="strokeWidth=1;html=1;shape=mxgraph.flowchart.multi-document;whiteSpace=wrap;align=left;fillColor=light-dark(#e7e6e6, #ededed);" parent="teSAWSRqsFNRcY3JA3gG-9" vertex="1">
          <mxGeometry x="-10" y="20" width="115.5" height="90" as="geometry" />
        </mxCell>
        <mxCell id="teSAWSRqsFNRcY3JA3gG-12" value="" style="group" parent="1" vertex="1" connectable="0">
          <mxGeometry x="-659" y="152.5" width="149" height="165" as="geometry" />
        </mxCell>
        <mxCell id="teSAWSRqsFNRcY3JA3gG-13" value="" style="group;fontStyle=0;strokeWidth=1;" parent="teSAWSRqsFNRcY3JA3gG-12" vertex="1" connectable="0">
          <mxGeometry width="149" height="165" as="geometry" />
        </mxCell>
        <mxCell id="teSAWSRqsFNRcY3JA3gG-14" value="&lt;font face=&quot;Times New Roman&quot;&gt;&lt;b&gt;大语言模型&lt;/b&gt;&lt;/font&gt;&lt;br&gt;&lt;div&gt;&lt;b&gt;&lt;font face=&quot;Times New Roman&quot;&gt;GPT-4o&lt;/font&gt;&lt;/b&gt;&lt;/div&gt;" style="text;html=1;align=center;verticalAlign=middle;resizable=0;points=[];autosize=1;strokeColor=none;fillColor=none;" parent="teSAWSRqsFNRcY3JA3gG-13" vertex="1">
          <mxGeometry x="9" y="95" width="80" height="40" as="geometry" />
        </mxCell>
        <mxCell id="teSAWSRqsFNRcY3JA3gG-15" value="" style="curved=1;endArrow=classic;html=1;rounded=0;strokeWidth=2;strokeColor=light-dark(#164673, #ededed);" parent="teSAWSRqsFNRcY3JA3gG-13" edge="1">
          <mxGeometry width="50" height="50" relative="1" as="geometry">
            <mxPoint x="64.5" y="20" as="sourcePoint" />
            <mxPoint x="34.5" y="20" as="targetPoint" />
            <Array as="points">
              <mxPoint x="64.5" />
              <mxPoint x="34.5" />
            </Array>
          </mxGeometry>
        </mxCell>
        <mxCell id="teSAWSRqsFNRcY3JA3gG-16" value="" style="group" parent="1" vertex="1" connectable="0">
          <mxGeometry x="-510" y="40" width="135" height="130" as="geometry" />
        </mxCell>
        <mxCell id="teSAWSRqsFNRcY3JA3gG-17" value="" style="group" parent="teSAWSRqsFNRcY3JA3gG-16" vertex="1" connectable="0">
          <mxGeometry y="60" width="130" height="60" as="geometry" />
        </mxCell>
        <mxCell id="teSAWSRqsFNRcY3JA3gG-18" value="&lt;font style=&quot;font-size: 10px;&quot; face=&quot;Times New Roman&quot;&gt;Human wants to have a coffee&lt;/font&gt;" style="whiteSpace=wrap;html=1;shape=mxgraph.basic.cloud_callout;strokeColor=light-dark(#4468ab, #319eff);fillColor=light-dark(#bdd7ee, #1e4a76);" parent="teSAWSRqsFNRcY3JA3gG-17" vertex="1">
          <mxGeometry x="5" width="120" height="39.99999999999999" as="geometry" />
        </mxCell>
        <mxCell id="teSAWSRqsFNRcY3JA3gG-19" value="&lt;font face=&quot;Times New Roman&quot;&gt;&lt;b&gt;推理意图&lt;/b&gt;&lt;/font&gt;" style="text;html=1;align=center;verticalAlign=middle;resizable=0;points=[];autosize=1;strokeColor=none;fillColor=none;" parent="teSAWSRqsFNRcY3JA3gG-16" vertex="1">
          <mxGeometry x="30" y="100" width="70" height="30" as="geometry" />
        </mxCell>
        <mxCell id="teSAWSRqsFNRcY3JA3gG-20" value="&lt;font style=&quot;font-size: 15px;&quot; face=&quot;Times New Roman&quot;&gt;意图推理模块&lt;/font&gt;" style="text;html=1;align=center;verticalAlign=middle;resizable=0;points=[];autosize=1;strokeColor=none;fillColor=none;fontColor=light-dark(#1c4c77, #a1cdf9);fontStyle=1" parent="1" vertex="1">
          <mxGeometry x="-827" y="105" width="110" height="30" as="geometry" />
        </mxCell>
        <mxCell id="teSAWSRqsFNRcY3JA3gG-21" value="" style="shape=image;html=1;verticalAlign=top;verticalLabelPosition=bottom;labelBackgroundColor=#ffffff;imageAspect=0;aspect=fixed;image=https://cdn0.iconfinder.com/data/icons/phosphor-light-vol-1/256/brain-light-128.png;imageBackground=none;imageBorder=none;" parent="1" vertex="1">
          <mxGeometry x="-651" y="170" width="83" height="83" as="geometry" />
        </mxCell>
        <mxCell id="teSAWSRqsFNRcY3JA3gG-22" value="" style="shape=singleArrow;whiteSpace=wrap;html=1;fillColor=light-dark(#eeeeee, #1a1a1a);strokeColor=#666666;gradientColor=none;" parent="1" vertex="1">
          <mxGeometry x="-869" y="205" width="42" height="22" as="geometry" />
        </mxCell>
        <mxCell id="teSAWSRqsFNRcY3JA3gG-23" value="" style="group" parent="1" vertex="1" connectable="0">
          <mxGeometry x="-492.50285714285724" y="188" width="110" height="82.00037037037032" as="geometry" />
        </mxCell>
        <mxCell id="teSAWSRqsFNRcY3JA3gG-24" value="" style="html=1;verticalLabelPosition=bottom;align=center;labelBackgroundColor=#ffffff;verticalAlign=middle;strokeWidth=4;strokeColor=light-dark(#4468ab, #319eff);shadow=0;dashed=0;shape=mxgraph.ios7.icons.pie_chart;aspect=fixed;fillColor=light-dark(#bdd7ee, #1e4a76);fontStyle=0;fontFamily=Helvetica;fontSize=12;fontColor=default;" parent="teSAWSRqsFNRcY3JA3gG-23" vertex="1">
          <mxGeometry x="23.132857142857233" width="53.74" height="52" as="geometry" />
        </mxCell>
        <mxCell id="teSAWSRqsFNRcY3JA3gG-25" value="&lt;b&gt;&lt;font face=&quot;Times New Roman&quot;&gt;交互物体概率列表&lt;/font&gt;&lt;/b&gt;" style="text;html=1;align=center;verticalAlign=middle;resizable=0;points=[];autosize=1;strokeColor=none;fillColor=none;fontStyle=0" parent="teSAWSRqsFNRcY3JA3gG-23" vertex="1">
          <mxGeometry x="-10" y="52.00037037037032" width="120" height="30" as="geometry" />
        </mxCell>
        <mxCell id="teSAWSRqsFNRcY3JA3gG-26" value="" style="group" parent="1" vertex="1" connectable="0">
          <mxGeometry x="-510" y="260" width="140" height="111.92307692307692" as="geometry" />
        </mxCell>
        <mxCell id="teSAWSRqsFNRcY3JA3gG-27" value="" style="group" parent="teSAWSRqsFNRcY3JA3gG-26" vertex="1" connectable="0">
          <mxGeometry width="115.98566308243727" height="111.92307692307692" as="geometry" />
        </mxCell>
        <mxCell id="teSAWSRqsFNRcY3JA3gG-28" value="&lt;b&gt;&lt;font face=&quot;Times New Roman&quot;&gt;完成状态评估&lt;/font&gt;&lt;/b&gt;" style="text;html=1;align=center;verticalAlign=middle;resizable=0;points=[];autosize=1;strokeColor=none;fillColor=none;" parent="teSAWSRqsFNRcY3JA3gG-27" vertex="1">
          <mxGeometry x="15.985663082437277" y="81.92307692307692" width="100" height="30" as="geometry" />
        </mxCell>
        <mxCell id="teSAWSRqsFNRcY3JA3gG-29" value="&lt;div style=&quot;text-align: center; line-height: 100%;&quot;&gt;&lt;span style=&quot;background-color: transparent; color: light-dark(rgb(0, 0, 0), rgb(255, 255, 255)); font-family: &amp;quot;Times New Roman&amp;quot;;&quot;&gt;&lt;font style=&quot;font-size: 11px;&quot;&gt;&amp;nbsp; &amp;nbsp; &amp;nbsp;&lt;/font&gt;&lt;/span&gt;&lt;/div&gt;&lt;div style=&quot;text-align: center; line-height: 100%;&quot;&gt;&lt;font style=&quot;font-size: 11px;&quot;&gt;&lt;span style=&quot;background-color: transparent; color: light-dark(rgb(0, 0, 0), rgb(255, 255, 255)); font-family: &amp;quot;Times New Roman&amp;quot;;&quot;&gt;&amp;nbsp; &amp;nbsp;&lt;/span&gt;&lt;span style=&quot;font-family: &amp;quot;Times New Roman&amp;quot;; background-color: transparent; color: light-dark(rgb(0, 0, 0), rgb(255, 255, 255));&quot;&gt;Human wants to have coffee&lt;/span&gt;&lt;/font&gt;&lt;/div&gt;&lt;ul style=&quot;line-height: 100%;&quot;&gt;&lt;li&gt;&lt;font style=&quot;font-size: 11px;&quot; face=&quot;Times New Roman&quot;&gt;Yes&lt;/font&gt;&lt;/li&gt;&lt;li&gt;&lt;font style=&quot;font-size: 11px;&quot; face=&quot;Times New Roman&quot;&gt;No&lt;/font&gt;&lt;/li&gt;&lt;/ul&gt;" style="shape=note;whiteSpace=wrap;html=1;backgroundOutline=1;darkOpacity=0.05;align=left;size=9;fillColor=light-dark(#bdd7ee, #ededed);" parent="teSAWSRqsFNRcY3JA3gG-26" vertex="1">
          <mxGeometry y="13" width="140" height="70" as="geometry" />
        </mxCell>
        <mxCell id="teSAWSRqsFNRcY3JA3gG-30" value="" style="endArrow=classic;html=1;rounded=1;strokeColor=light-dark(#164673, #51afe7);align=center;verticalAlign=middle;fontFamily=Helvetica;fontSize=11;fontColor=default;labelBackgroundColor=default;curved=0;fillColor=#1ba1e2;" parent="1" edge="1">
          <mxGeometry width="50" height="50" relative="1" as="geometry">
            <mxPoint x="-570" y="220" as="sourcePoint" />
            <mxPoint x="-500" y="220" as="targetPoint" />
          </mxGeometry>
        </mxCell>
        <mxCell id="teSAWSRqsFNRcY3JA3gG-31" style="edgeStyle=orthogonalEdgeStyle;rounded=1;orthogonalLoop=1;jettySize=auto;html=1;fillColor=#1ba1e2;strokeColor=light-dark(#164673, #51afe7);curved=0;entryX=0;entryY=0.5;entryDx=0;entryDy=0;entryPerimeter=0;" parent="1" target="teSAWSRqsFNRcY3JA3gG-29" edge="1">
          <mxGeometry relative="1" as="geometry">
            <mxPoint x="-570" y="220" as="sourcePoint" />
            <mxPoint x="-499" y="148" as="targetPoint" />
          </mxGeometry>
        </mxCell>
        <mxCell id="teSAWSRqsFNRcY3JA3gG-48" value="" style="group" parent="1" vertex="1" connectable="0">
          <mxGeometry x="-350" y="90" width="200" height="290" as="geometry" />
        </mxCell>
        <mxCell id="teSAWSRqsFNRcY3JA3gG-40" value="" style="rounded=1;arcSize=5;whiteSpace=wrap;html=1;fillColor=#fff2cc;strokeColor=light-dark(#ccb66b, #6d5100);" parent="teSAWSRqsFNRcY3JA3gG-48" vertex="1">
          <mxGeometry width="111.73" height="290" as="geometry" />
        </mxCell>
        <mxCell id="teSAWSRqsFNRcY3JA3gG-41" value="" style="html=1;verticalLabelPosition=bottom;align=center;labelBackgroundColor=#ffffff;verticalAlign=top;strokeWidth=3;strokeColor=light-dark(#b67a58, #32a0ff);shadow=0;dashed=0;shape=mxgraph.ios7.icons.keypad;fillColor=none;" parent="teSAWSRqsFNRcY3JA3gG-48" vertex="1">
          <mxGeometry x="31.730000000000018" y="201.9999999999999" width="50" height="50" as="geometry" />
        </mxCell>
        <mxCell id="teSAWSRqsFNRcY3JA3gG-42" value="&lt;b&gt;转移方程&lt;/b&gt;" style="text;html=1;align=center;verticalAlign=middle;whiteSpace=wrap;rounded=0;" parent="teSAWSRqsFNRcY3JA3gG-48" vertex="1">
          <mxGeometry x="26.730000000000018" y="260" width="60" height="30" as="geometry" />
        </mxCell>
        <mxCell id="teSAWSRqsFNRcY3JA3gG-43" value="&lt;font face=&quot;Times New Roman&quot;&gt;&lt;span style=&quot;font-size: 15px;&quot;&gt;迭代修正&lt;/span&gt;&lt;/font&gt;" style="text;html=1;align=center;verticalAlign=middle;resizable=0;points=[];autosize=1;strokeColor=none;fillColor=none;fontColor=light-dark(#7f6105, #69c195);fontStyle=1" parent="teSAWSRqsFNRcY3JA3gG-48" vertex="1">
          <mxGeometry x="15.860000000000014" y="10" width="80" height="30" as="geometry" />
        </mxCell>
        <mxCell id="teSAWSRqsFNRcY3JA3gG-44" value="" style="html=1;verticalLabelPosition=bottom;align=center;labelBackgroundColor=#ffffff;verticalAlign=top;strokeWidth=2;strokeColor=light-dark(#b67a58, #32a0ff);shadow=0;dashed=0;shape=mxgraph.ios7.icons.volume;pointerEvents=1;fillColor=light-dark(#fff2cc, #ededed);" parent="teSAWSRqsFNRcY3JA3gG-48" vertex="1">
          <mxGeometry x="30.860000000000014" y="45" width="50" height="50" as="geometry" />
        </mxCell>
        <mxCell id="teSAWSRqsFNRcY3JA3gG-45" value="&lt;b&gt;动态特征&lt;/b&gt;" style="text;html=1;align=center;verticalAlign=middle;whiteSpace=wrap;rounded=0;" parent="teSAWSRqsFNRcY3JA3gG-48" vertex="1">
          <mxGeometry x="25.860000000000014" y="101" width="60" height="30" as="geometry" />
        </mxCell>
        <mxCell id="teSAWSRqsFNRcY3JA3gG-46" style="edgeStyle=orthogonalEdgeStyle;rounded=1;orthogonalLoop=1;jettySize=auto;html=1;fillColor=#1ba1e2;strokeColor=light-dark(#b67b58, #28ab6a);curved=0;horizontal=1;" parent="teSAWSRqsFNRcY3JA3gG-48" source="teSAWSRqsFNRcY3JA3gG-45" edge="1">
          <mxGeometry relative="1" as="geometry">
            <mxPoint x="55.55000000000007" y="168" as="sourcePoint" />
            <mxPoint x="55.73000000000002" y="196" as="targetPoint" />
            <Array as="points" />
          </mxGeometry>
        </mxCell>
        <mxCell id="teSAWSRqsFNRcY3JA3gG-47" value="" style="shape=flexArrow;endArrow=classic;html=1;rounded=0;fillColor=light-dark(#b67a58, #36210a);strokeColor=#d79b00;endWidth=8.045977011494253;endSize=4.83448275862069;" parent="teSAWSRqsFNRcY3JA3gG-48" edge="1">
          <mxGeometry width="50" height="50" relative="1" as="geometry">
            <mxPoint x="90" y="227" as="sourcePoint" />
            <mxPoint x="136.73000000000002" y="226.58531132603312" as="targetPoint" />
            <Array as="points" />
          </mxGeometry>
        </mxCell>
        <mxCell id="teSAWSRqsFNRcY3JA3gG-49" value="&lt;b&gt;预测目标&lt;/b&gt;" style="rounded=1;arcSize=5;whiteSpace=wrap;html=1;fillColor=none;strokeColor=#d6b656;" parent="teSAWSRqsFNRcY3JA3gG-48" vertex="1">
          <mxGeometry x="140" y="211.12" width="60" height="31.75" as="geometry" />
        </mxCell>
        <mxCell id="teSAWSRqsFNRcY3JA3gG-32" value="" style="shape=flexArrow;endArrow=classic;html=1;rounded=0;fillColor=#66B2FF;strokeColor=light-dark(#7193c2, #ededed);" parent="teSAWSRqsFNRcY3JA3gG-48" edge="1">
          <mxGeometry width="50" height="50" relative="1" as="geometry">
            <mxPoint x="-40" y="139" as="sourcePoint" />
            <mxPoint x="26.730000000000018" y="139" as="targetPoint" />
          </mxGeometry>
        </mxCell>
      </root>
    </mxGraphModel>
  </diagram>
</mxfile>
